<svg width="494" height="46" viewBox="0 0 494 46" fill="none"
    xmlns="http://www.w3.org/2000/svg">
    <path d="M456.571 0.168459C456.522 0.260013 456.482 0.355228 456.482 0.380863C456.482 0.406498 456.593 0.629888 456.731 0.882574C457.902 3.02126 459.419 6.00223 460.243 7.77104C460.269 7.82231 460.216 7.84794 459.945 7.91386C459.766 7.95781 459.615 7.99809 459.611 8.00175C459.602 8.00541 459.62 8.10795 459.646 8.2288L459.695 8.45219L460.131 8.49614L460.568 8.54009L460.67 8.73052C460.839 9.05645 460.933 9.30913 460.933 9.44829V9.58013L460.599 9.64605L460.265 9.71197V9.92803C460.265 10.1771 460.256 10.1734 460.741 10.1038C460.946 10.0745 461.022 10.0489 461.004 10.0159C460.99 9.98663 460.968 9.9024 460.955 9.82549L460.928 9.68633L461.039 9.7962C461.164 9.91338 461.582 10.6971 461.898 11.4002C462.036 11.7115 462.081 11.847 462.05 11.8799C462.023 11.9056 461.858 11.9752 461.68 12.0301C461.257 12.1656 461.244 12.1766 461.244 12.3597C461.244 12.4439 461.271 12.5318 461.302 12.5538C461.418 12.6307 461.849 12.7076 462.179 12.7076H462.517L462.699 13.191C462.802 13.4583 462.931 13.8099 462.984 13.971L463.078 14.2603L462.966 14.3409C462.904 14.3848 462.722 14.4581 462.561 14.5057L462.268 14.5936V14.8023V15.0147H462.601C462.784 15.0147 462.935 15.0111 462.935 15.0037C462.935 15.0001 462.895 14.9085 462.846 14.7987C462.793 14.6925 462.757 14.6009 462.766 14.5972C462.775 14.5936 462.904 14.6119 463.06 14.6412C463.331 14.6925 463.336 14.6925 463.336 14.817C463.336 14.8866 463.385 15.0257 463.447 15.1246C463.674 15.4945 464.226 16.7103 464.226 16.8458C464.226 16.9007 464.173 16.9117 463.857 16.9264C463.59 16.9373 463.434 16.963 463.278 17.0289C463.158 17.0765 463.055 17.1278 463.047 17.1388C463.038 17.1534 463.069 17.256 463.122 17.3695L463.216 17.5746L463.727 17.5855L464.239 17.5965L464.324 17.7979C464.373 17.9078 464.444 18.2044 464.493 18.4571C464.582 18.9662 464.698 20.204 464.658 20.2406C464.493 20.3724 462.392 20.4603 456.437 20.5812C451.417 20.6837 451.186 20.691 449.205 20.8888C447.572 21.0536 445.302 21.3099 444.844 21.3868C444.626 21.4198 444.621 21.4198 444.483 21.2953C444.314 21.1415 443.219 19.8304 441.421 17.6368L440.104 16.0291L439.668 15.857L439.232 15.6849L438.475 15.6593L437.723 15.6336L437.554 15.7728L437.389 15.9156L437.638 16.5931C437.87 17.2303 438.137 17.9481 439.076 20.4786C439.583 21.8446 439.668 22.0936 439.623 22.1229C439.606 22.1376 439.094 22.2731 438.48 22.4232C436.864 22.8224 436.935 22.7858 437.247 23.0604C437.447 23.2362 437.469 23.2472 437.812 23.2875C438.386 23.3607 439.623 23.5768 439.663 23.6097C439.712 23.65 439.192 25.1332 437.968 28.4364C437.545 29.568 437.558 29.5204 437.607 29.8134C437.63 29.9562 437.661 30.0807 437.67 30.0881C437.723 30.1357 439.53 29.9928 439.895 29.9159C440.082 29.8756 439.926 30.0624 443.17 25.9901L444.479 24.3532H444.639C444.911 24.3532 446.824 24.5509 449.962 24.9025L451.253 25.049L453.634 25.0856C454.942 25.1039 457.239 25.1369 458.73 25.1588C460.225 25.1771 461.796 25.2028 462.223 25.2138C462.65 25.2247 463.518 25.2321 464.15 25.2357C464.974 25.2357 465.294 25.2467 465.294 25.2797C465.294 25.4445 464.983 26.067 464.475 26.9276C463.83 28.0189 463.897 27.9457 463.46 27.997L463.247 28.0226V28.2899V28.5536L463.723 28.6305C463.981 28.6745 464.204 28.7148 464.208 28.7221C464.217 28.7294 464.164 28.8649 464.092 29.0224C464.021 29.1835 463.861 29.5644 463.736 29.8683L463.509 30.4213L462.886 30.5092L462.268 30.5934V30.7985V30.9999L462.615 31.0988C462.802 31.1501 463.011 31.2123 463.078 31.2343L463.198 31.2709L463.002 31.7214C462.9 31.9704 462.735 32.3293 462.646 32.5197C462.557 32.7101 462.437 32.9701 462.379 33.0983C462.326 33.2265 462.268 33.3364 462.254 33.3473C462.241 33.3583 462.05 33.3107 461.827 33.2411L461.422 33.1166V33.384V33.6513L461.591 33.6879C461.68 33.7062 461.818 33.7355 461.889 33.7502C461.965 33.7648 462.036 33.7795 462.05 33.7868C462.067 33.7941 461.903 34.1823 461.689 34.6511L461.302 35.5043L461.128 35.53C461.035 35.541 460.879 35.5629 460.79 35.5776L460.621 35.5996V35.8522V36.1086H460.79C460.884 36.1086 460.973 36.1196 460.986 36.1306C461.022 36.1562 460.857 36.4931 460.621 36.885L460.425 37.2036L460.096 37.2146L459.766 37.2255L459.664 37.4343L459.562 37.6467L459.847 37.8188C460.002 37.914 460.131 38.0092 460.131 38.0312C460.131 38.1337 458.053 42.3086 456.74 44.8428L456.322 45.6484L456.397 45.8132L456.473 45.978L456.923 45.989L457.372 46L457.906 45.6997C458.2 45.5386 458.44 45.3811 458.44 45.3555C458.44 45.3262 458.418 45.2603 458.387 45.209C458.32 45.0845 458.351 45.0698 458.547 45.1357L458.707 45.1907L459.224 44.927L459.744 44.6597L460.946 43.0849C461.605 42.217 463.18 40.1516 464.448 38.489C465.712 36.8264 467.604 34.3434 468.65 32.9665L470.555 30.4653L470.759 30.6044L470.96 30.7399L472.655 30.8095L474.351 30.8827L474.72 30.7253L475.085 30.5678V29.6303V28.6928L474.876 28.5866C474.671 28.4767 474.662 28.4767 473.465 28.4108C472.802 28.3778 472.232 28.3412 472.201 28.3376C472.17 28.3302 472.58 27.748 473.203 26.9093L474.262 25.4921L474.738 25.3273L475.214 25.1588H480.079H484.943L486.795 25.016L488.642 24.8695L490.155 24.5546C491.628 24.247 491.677 24.2323 492.242 23.9906C492.999 23.6683 493.426 23.434 493.742 23.1666L494 22.9506V22.7198C494 22.4928 494 22.4891 493.791 22.3353C493.426 22.068 492.941 21.83 492.02 21.4601L491.129 21.1048L489.505 20.8192L487.881 20.5372L481.605 20.475L475.33 20.4164L474.76 20.215L474.191 20.0135L473.096 18.5743C472.495 17.7833 472.01 17.1314 472.019 17.1241C472.028 17.1168 472.629 17.0802 473.35 17.0435L474.658 16.9813L474.872 16.8714L475.085 16.7616V15.835V14.9085L474.885 14.795L474.68 14.6815L472.891 14.7071L471.102 14.7327L470.799 14.9525C470.635 15.0733 470.492 15.1649 470.488 15.1576C470.443 15.1099 469.891 14.3812 468.966 13.147C467.088 10.6458 465.69 8.80376 463.122 5.43826C460.274 1.70289 460.091 1.46852 459.878 1.25245C459.686 1.05836 459.17 0.772711 458.231 0.333255L457.515 1.40001e-06H457.087H456.656L456.571 0.168459Z" fill="#8D8C8C"/>
    <line x1="-1.32585e-10" y1="22" x2="430" y2="22" stroke="#8D8C8C" stroke-width="2"/>
</svg>
